<svg viewBox="0 0 130 16" fill="none" xmlns="http://www.w3.org/2000/svg">
<path d="M13.4554 8.88004C13.5194 8.88004 13.5674 8.88004 13.5994 8.88004H13.7594L13.9354 8.89604C13.9034 8.67204 13.8874 8.25604 13.8874 7.90404V6.73604C13.8874 6.36804 13.9034 6.00004 13.9514 5.74404C13.6954 5.79204 13.2794 5.80804 12.8474 5.80804H6.78342C6.35142 5.80804 5.93542 5.79204 5.69542 5.74404C5.72742 5.98404 5.74342 6.30404 5.74342 6.75204V7.88804C5.74342 8.41604 5.72742 8.62404 5.69542 8.89604C5.96742 8.88004 6.39942 8.86404 6.79942 8.86404H8.28742C7.19942 9.77604 5.93542 10.464 4.55942 10.896C4.94342 11.312 5.08742 11.52 5.32742 12.016C6.89542 11.312 7.93542 10.64 8.81542 9.71204C8.78342 9.98404 8.76742 10.368 8.76742 10.768V11.648C8.76742 12.24 8.73542 12.672 8.68742 12.944H10.2074C10.1594 12.672 10.1274 12.288 10.1274 11.616V10.864C10.1274 10.592 10.1114 10.336 10.0634 9.85604C11.0714 11.184 12.5114 12.112 14.5754 12.768C14.7194 12.32 14.9434 11.904 15.2314 11.504C14.1114 11.232 13.5354 11.04 12.7994 10.656C13.2794 10.336 13.5834 10.112 14.0314 9.72804C14.1914 9.60004 14.3194 9.48804 14.4154 9.40804L13.4554 8.88004ZM12.8794 8.86404C12.9754 8.86404 13.0554 8.86404 13.2634 8.86404C13.1194 9.12004 12.5114 9.63204 11.8554 10.112C11.2634 9.71204 10.9434 9.42404 10.4154 8.86404H12.8794ZM7.08742 6.84804H12.5594V7.85604H7.08742V6.84804ZM10.3674 3.87204V2.94404H12.7514C13.3274 2.94404 13.8554 2.97604 14.2234 3.02404V1.68004C13.8394 1.74404 13.2154 1.77604 12.6714 1.77604H10.3674C10.3834 1.29604 10.3994 0.944043 10.4634 0.736043H8.89542C8.94342 0.944043 8.97542 1.28004 8.99142 1.77604H7.02342C6.31942 1.77604 5.80742 1.74404 5.45542 1.68004V3.02404C5.75942 2.97604 6.31942 2.94404 6.92742 2.94404H8.99142V3.87204H6.23942C5.53542 3.87204 5.11942 3.85604 4.75142 3.79204V5.10404C5.10342 5.05604 5.59942 5.02404 6.25542 5.02404H13.4874C14.1434 5.02404 14.6394 5.05604 14.9754 5.10404V3.79204C14.5914 3.85604 14.1914 3.87204 13.4874 3.87204H10.3674ZM0.975422 1.93604C1.88742 2.75204 2.62342 3.60004 3.42342 4.70404L4.52742 3.68004C3.58342 2.49604 2.89542 1.76004 2.03142 1.00804L0.975422 1.93604ZM0.943422 8.17604C1.35942 8.11204 1.53542 8.09604 2.04742 8.09604H2.97542V11.632C2.15942 12.4 1.19942 13.088 0.607422 13.328L1.27942 14.8C1.45542 14.64 1.63142 14.496 1.80742 14.368C2.44742 13.888 3.08742 13.344 3.63142 12.816C4.27142 13.696 4.78342 14.08 5.71142 14.368C6.51142 14.624 7.34342 14.688 9.96742 14.688C11.6634 14.688 13.6794 14.64 15.0874 14.592C15.1994 13.872 15.2634 13.648 15.5194 13.056C13.4554 13.28 11.8074 13.36 8.65542 13.36C6.81542 13.36 5.90342 13.168 5.11942 12.624C4.81542 12.416 4.62342 12.192 4.35142 11.712V8.28804C4.35142 7.53604 4.36742 7.16804 4.41542 6.75204C4.12742 6.80004 3.64742 6.83204 3.21542 6.83204H2.19142C1.58342 6.83204 1.27942 6.81604 0.943422 6.75204V8.17604Z" fill="#00A0E9"/>
<path d="M26.2234 12.368V13.552C26.2234 14.128 26.2074 14.432 26.1594 14.704H27.4554C27.4074 14.432 27.4074 14.24 27.4074 13.632V12.368H28.1914C28.8954 12.368 29.0394 12.368 29.3594 12.416V11.264C28.9914 11.312 28.7034 11.328 28.2074 11.328H25.6154C25.1354 11.328 24.7034 11.312 24.4474 11.264V12.416C24.7674 12.368 24.9274 12.368 25.5994 12.368H26.2234ZM23.7594 10.352C23.9834 10.496 24.3354 10.848 24.5594 11.168C25.7594 10.576 26.2714 9.87204 26.4314 8.57604H27.2314V9.84004C27.2314 10.48 27.5194 10.64 28.6874 10.64C29.2474 10.64 29.5834 10.64 30.0154 10.624V13.504C30.0154 13.792 29.9354 13.84 29.5354 13.84C29.1354 13.84 28.7194 13.792 28.2074 13.696C28.3674 14.048 28.4474 14.4 28.4954 14.896C28.9594 14.928 29.2314 14.944 29.6314 14.944C30.9594 14.944 31.3114 14.656 31.3114 13.632V8.78404C31.3114 8.19204 31.3274 7.77604 31.3754 7.37604C31.1674 7.42404 30.7034 7.44004 29.9514 7.44004H23.7914C23.1834 7.44004 22.7354 7.42404 22.4154 7.37604C22.4474 7.69604 22.4794 8.20804 22.4794 8.80004V13.216C22.4794 13.984 22.4474 14.784 22.3994 15.12H23.8234C23.7914 14.768 23.7594 14.112 23.7594 13.344V10.352ZM25.2794 8.57604C25.1834 9.45604 24.7674 9.95204 23.7594 10.336V8.57604H25.2794ZM30.0154 9.63204C29.6954 9.64804 29.3114 9.66404 29.0554 9.66404C28.4474 9.66404 28.3514 9.61604 28.3514 9.32804V8.57604H30.0154V9.63204ZM17.9034 13.232C17.9034 14 17.8554 14.736 17.8074 15.072H19.3274C19.2794 14.688 19.2474 14 19.2474 13.28V2.46404H21.0394C20.7674 3.56804 20.1274 5.20004 19.5834 6.20804C20.0314 6.75204 20.2074 7.00804 20.3994 7.39204C20.7194 8.03204 20.8954 8.76804 20.8954 9.44004C20.8954 10.208 20.7514 10.416 20.2394 10.416C19.9994 10.416 19.6954 10.4 19.3914 10.352C19.5834 10.768 19.6474 11.12 19.6474 11.68C19.8234 11.68 19.9354 11.68 20.0314 11.68C20.5594 11.68 21.0234 11.6 21.3434 11.472C21.8554 11.248 22.1274 10.592 22.1274 9.64804C22.1274 8.17604 21.8074 7.28004 20.9114 6.11204C21.3754 5.21604 21.8234 4.17604 22.4154 2.60804C22.4794 2.43204 22.5594 2.24004 22.6234 2.11204L21.9194 1.15204C21.6154 1.20004 21.3434 1.21604 20.8634 1.21604H18.9594C18.4154 1.21604 18.0794 1.20004 17.8554 1.16804C17.8874 1.52004 17.9034 1.84004 17.9034 2.51204V13.232ZM31.7114 1.21604C31.3754 1.28004 30.8154 1.31204 30.0154 1.31204H24.3834C23.5354 1.31204 23.0714 1.29604 22.7034 1.23204V2.56004C23.0394 2.51204 23.4234 2.49604 24.1274 2.49604H30.0154C30.9274 2.49604 31.3114 2.51204 31.7114 2.56004V1.21604ZM30.4954 4.41604C30.4954 3.95204 30.5114 3.56804 30.5434 3.28004C30.2394 3.31204 30.0154 3.32804 29.2954 3.32804H24.3834C23.7114 3.32804 23.5514 3.32804 23.1674 3.28004C23.1994 3.48804 23.2314 3.92004 23.2314 4.36804V5.53604C23.2154 5.95204 23.1994 6.32004 23.1834 6.62404C23.3594 6.59204 23.7754 6.57604 24.3834 6.57604H29.3594C29.9674 6.57604 30.2554 6.59204 30.5434 6.62404C30.5114 6.32004 30.4954 5.98404 30.4954 5.48804V4.41604ZM24.5434 4.38404H29.1514V5.53604H24.5434V4.38404Z" fill="#00A0E9"/>
<path d="M46.6554 10.032C47.3914 10.032 47.7914 10.048 48.1594 10.112V8.70404C47.8554 8.76804 47.3914 8.78404 46.6394 8.78404H42.7834C42.8954 8.59204 42.9434 8.51204 43.0714 8.28804C43.2314 7.98404 43.2314 7.98404 43.3594 7.77604L41.9674 7.39204C41.8554 7.72804 41.5674 8.33604 41.3114 8.78404H39.8074C39.0874 8.78404 38.6714 8.76804 38.3034 8.70404V10.112C38.6714 10.048 39.1194 10.032 39.7914 10.032H40.5114C39.9194 10.864 39.6154 11.232 39.0394 11.808C40.3834 12.208 40.9114 12.384 41.9514 12.8C40.6874 13.44 39.3274 13.776 37.5994 13.872C37.8874 14.32 38.0474 14.656 38.1914 15.152C40.1914 14.896 41.9994 14.288 43.3594 13.408C44.7674 14.048 45.4714 14.432 46.8154 15.28L47.7754 14.112C46.3994 13.344 45.6954 12.992 44.4794 12.496C45.2154 11.76 45.7594 10.896 46.0474 10.032H46.6554ZM44.6234 10.032C44.3834 10.72 43.8874 11.424 43.2154 12C42.4954 11.744 42.0794 11.6 41.0554 11.264C41.7114 10.448 41.8234 10.304 41.9994 10.032H44.6234ZM38.4314 7.42404C38.7994 7.37604 39.1674 7.36004 39.7594 7.36004H46.5914C47.3914 7.36004 47.7914 7.37604 48.1594 7.44004V6.03204C47.8074 6.09604 47.3754 6.11204 46.5914 6.11204H45.1674C45.5834 5.48804 45.8714 4.92804 46.2394 4.04804L44.9114 3.69604C44.6394 4.64004 44.2874 5.42404 43.8234 6.11204H39.6954C39.1034 6.11204 38.6074 6.08004 38.3674 6.03204V6.99204L38.2234 7.05604L37.8714 7.24804C37.6634 7.34404 37.4074 7.45604 37.0874 7.58404V5.04004H37.5514C37.9034 5.04004 38.2074 5.05604 38.5114 5.08804V3.71204C38.2074 3.76004 38.0154 3.77604 37.5514 3.77604H37.0874V2.38404C37.0874 1.72804 37.1194 1.23204 37.1834 0.800043H35.6314C35.6954 1.24804 35.7274 1.66404 35.7274 2.40004V3.77604H35.0234C34.5754 3.77604 34.2234 3.74404 33.8554 3.69604V5.10404C34.1914 5.05604 34.6234 5.04004 35.0074 5.04004H35.7274V8.11204C34.8954 8.40004 34.0794 8.62404 33.6634 8.67204L33.9834 10.144C34.1594 10.064 34.2074 10.048 34.4314 9.96804L34.6554 9.88804L34.9274 9.79204C35.0234 9.76004 35.3114 9.64804 35.7274 9.48804V13.28C35.7274 13.648 35.6154 13.744 35.1994 13.744C34.8154 13.744 34.4794 13.712 34.0314 13.632C34.2074 14.064 34.3034 14.48 34.3674 14.992C34.6874 15.024 34.7994 15.024 35.1834 15.024C36.6554 15.024 37.0874 14.72 37.0874 13.664V8.96004C37.5994 8.73604 37.8874 8.60804 38.4954 8.30404L38.4314 7.42404ZM43.7914 2.40004V1.98404C43.7914 1.55204 43.8234 1.18404 43.8714 0.848043H42.3194C42.3674 1.10404 42.3994 1.58404 42.3994 1.98404V2.40004H40.5434C39.7594 2.40004 39.2314 2.38404 38.8634 2.32004V3.72804C39.1834 3.66404 39.5834 3.64804 40.4154 3.64804H46.2394C47.0394 3.64804 47.5034 3.66404 47.7914 3.72804V2.32004C47.4874 2.36804 46.9114 2.40004 46.1114 2.40004H43.7914ZM40.0954 4.14404C40.5114 4.86404 40.6714 5.24804 40.9274 6.09604L42.1434 5.64804C41.9194 4.92804 41.6154 4.25604 41.2954 3.68004L40.0954 4.14404Z" fill="#00A0E9"/>
<path d="M52.7994 13.616C52.7994 14.112 52.7674 14.624 52.7194 15.04H54.1754V14.448H60.7994V15.04H62.2714C62.2074 14.624 62.1914 14.256 62.1914 13.632V11.456C62.1914 11.072 62.1914 10.912 62.2234 10.544C63.0234 10.768 63.2954 10.832 64.1274 11.008C64.2874 10.4 64.4314 10.064 64.7514 9.55204C62.3514 9.26404 60.4634 8.75204 58.7034 7.88804C59.7914 7.10404 60.6394 6.38404 61.4874 5.50404L61.7114 5.26404C61.7274 5.24804 61.7914 5.18404 61.8554 5.12004L60.9754 4.36804C60.6554 4.41604 60.1754 4.43204 59.6474 4.43204H56.5114C56.7194 4.17604 56.7514 4.16004 56.8154 4.06404L56.9434 3.90404C56.9594 3.88804 57.0074 3.82404 57.0874 3.74404L55.6954 3.32804C54.8794 4.84804 53.0234 6.33604 50.8314 7.23204C51.2154 7.60004 51.3594 7.77604 51.6954 8.30404C53.0074 7.61604 53.6314 7.20004 54.5434 6.43204C55.1354 7.02404 55.6474 7.45604 56.2554 7.88804C54.4794 8.81604 52.2554 9.53604 50.1594 9.85604C50.3834 10.112 50.6714 10.672 50.8154 11.136C51.7274 10.928 52.1274 10.816 52.7834 10.624C52.7994 10.896 52.7994 11.056 52.7994 11.44V13.616ZM59.6314 5.53604C58.7354 6.33604 58.2554 6.70404 57.4714 7.20004C56.6714 6.68804 56.0154 6.19204 55.4394 5.64804C55.4874 5.60004 55.5034 5.58404 55.5514 5.53604H59.6314ZM60.8154 10.208H54.0314C55.5834 9.66404 56.3514 9.31204 57.4874 8.65604C58.7354 9.37604 59.7274 9.80804 61.0394 10.208H60.8154ZM54.1754 11.408H60.7994V13.216H54.1754V11.408ZM56.5914 2.08004H52.4634C51.7754 2.08004 51.1514 2.04804 50.7194 2.00004C50.7674 2.28804 50.7834 2.73604 50.7834 3.13604V4.24004C50.7834 4.78404 50.7674 5.04004 50.7034 5.39204H52.1274V3.29604H62.7034V5.40804H64.1274C64.0954 5.15204 64.0634 4.78404 64.0634 4.27204V3.13604C64.0634 2.62404 64.0794 2.30404 64.1274 2.00004C63.6634 2.06404 63.0554 2.08004 62.3194 2.08004H58.0474V1.77604C58.0634 1.36004 58.0954 0.912044 58.1434 0.720043H56.5114C56.5754 1.13604 56.5914 1.23204 56.5914 1.77604V2.08004Z" fill="#00A0E9"/>
<path d="M71.7754 6.06404H76.0314V6.73604C76.0314 10.56 74.7034 12.208 71.1674 13.296L71.9994 14.688C75.7594 13.472 77.6314 11.28 77.6314 6.83204V6.06404H80.7514V4.59204H77.6314V1.52004H76.0314V4.59204H71.7754V1.60004H70.1754V4.59204H67.1514V6.06404H70.1754V9.87204H71.7754V6.06404Z" fill="#00A0E9"/>
<path d="M84.0154 7.05604V8.72004H96.7994V7.05604H84.0154Z" fill="#00A0E9"/>
<path d="M103.695 8.14404C106.303 7.60004 109.119 6.60804 111.455 5.36004L110.623 3.92004C108.671 5.13604 106.095 6.11204 103.695 6.70404V1.84004H102.079V11.424C102.079 13.232 103.119 14.048 106.239 14.048C108.543 14.048 110.351 13.936 112.303 13.584L112.111 12C110.223 12.368 108.383 12.528 106.223 12.528C104.207 12.528 103.695 12.112 103.695 11.104V8.14404ZM112.127 0.640043C112.703 1.29604 113.327 2.22404 113.791 3.18404L114.767 2.64004C114.287 1.71204 113.647 0.784043 113.023 0.144043L112.127 0.640043ZM110.351 1.52004C110.959 2.24004 111.535 3.13604 111.983 4.11204L112.975 3.56804C112.527 2.65604 111.887 1.66404 111.247 1.00804L110.351 1.52004Z" fill="#00A0E9"/>
<path d="M129.951 13.168C128.543 11.392 126.799 9.66404 125.103 8.40004C126.143 6.99204 127.023 5.37604 127.727 3.48804L126.799 2.41604H118.383V3.92004H125.743C124.335 7.71204 121.183 11.04 116.895 12.912L117.919 14.192C120.335 13.04 122.447 11.552 124.175 9.56804C125.711 10.88 127.279 12.592 128.543 14.32L129.951 13.168Z" fill="#00A0E9"/>
</svg>
