<svg viewBox="0 0 166 36" fill="none" xmlns="http://www.w3.org/2000/svg">
<g clip-path="url(#clip0_224_13904)">
<path d="M165.856 32.5284L154.65 3.07966C154.593 2.93396 154.496 2.80755 154.37 2.71534C154.243 2.62313 154.093 2.56898 153.937 2.55926H146.138C146.03 2.5562 145.923 2.58673 145.832 2.6467C145.742 2.70667 145.672 2.79315 145.632 2.89431L134.397 32.343C134.367 32.4543 134.363 32.5709 134.384 32.6842C134.405 32.7974 134.452 32.9044 134.521 32.997C134.589 33.0896 134.678 33.1655 134.78 33.2189C134.882 33.2723 134.995 33.3019 135.11 33.3054H142.125C142.238 33.3128 142.35 33.2826 142.445 33.2194C142.539 33.1562 142.609 33.0636 142.645 32.9561L144.235 28.3153C144.271 28.209 144.34 28.1173 144.433 28.0542C144.526 27.9912 144.636 27.9602 144.748 27.966H155.22C155.379 27.9757 155.532 28.0323 155.659 28.1287C155.786 28.2252 155.881 28.3571 155.933 28.5078L157.395 32.785C157.449 32.9342 157.545 33.0647 157.671 33.1607C157.798 33.2568 157.949 33.3145 158.107 33.3268H165.386C165.457 33.3287 165.528 33.3163 165.595 33.2903C165.661 33.2642 165.722 33.2252 165.773 33.1753C165.824 33.1255 165.865 33.0659 165.893 33.0001C165.921 32.9343 165.935 32.8636 165.935 32.7921C165.936 32.6982 165.909 32.6061 165.856 32.5284ZM152.904 21.8923H147.564C147.367 21.876 147.183 21.7851 147.051 21.638C146.918 21.491 146.847 21.2989 146.851 21.101C146.844 21.0442 146.844 20.9868 146.851 20.93L149.517 13.3379C149.703 12.7961 150.551 12.9173 150.765 13.5304L153.424 21.1224C153.48 21.2532 153.483 21.4006 153.432 21.5336C153.382 21.6666 153.282 21.7747 153.153 21.8353C153.074 21.8692 152.989 21.8885 152.904 21.8923ZM65.5269 21.486C65.4728 21.4323 65.4299 21.3685 65.4006 21.2981C65.3713 21.2278 65.3562 21.1523 65.3562 21.0761C65.3562 20.9999 65.3713 20.9244 65.4006 20.8541C65.4299 20.7837 65.4728 20.7199 65.5269 20.6662C65.5859 20.6041 65.6594 20.5576 65.7408 20.5308C67.4225 20.0748 68.9186 19.1023 70.018 17.7506C71.2162 16.0734 71.8162 14.0424 71.7217 11.9834C71.7295 10.7172 71.5122 9.45963 71.0802 8.26936C70.6579 7.09214 69.9827 6.02181 69.1021 5.13378C68.2214 4.24574 67.1568 3.56161 65.9831 3.12956C64.5338 2.58977 62.9955 2.32856 61.4493 2.35966H49.3946C49.2559 2.35383 49.1204 2.40296 49.0176 2.49638C48.9149 2.58981 48.8531 2.71999 48.8457 2.85867V32.7422C48.8563 32.9435 48.942 33.1336 49.0858 33.2748C49.2297 33.416 49.4213 33.4982 49.6227 33.505H56.395C56.5326 33.5089 56.6662 33.4589 56.7674 33.3657C56.8686 33.2725 56.9294 33.1434 56.9368 33.006V23.5248C56.9368 22.9046 57.7851 22.8119 58.1415 23.368L64.4219 33.1201C64.4932 33.2302 64.5901 33.3214 64.7043 33.386C64.8185 33.4505 64.9467 33.4865 65.0778 33.4908H73.6322C74.1384 33.4908 74.3451 32.9418 74.0172 32.507L65.5269 21.486ZM62.1265 15.2911C61.046 16.0184 59.7549 16.3669 58.4552 16.282H57.7423C57.5409 16.2752 57.3493 16.193 57.2054 16.0518C57.0616 15.9106 56.9759 15.7206 56.9653 15.5193V9.1462C56.9634 9.07667 56.9755 9.00746 57.0008 8.94267C57.0261 8.87788 57.0641 8.81881 57.1126 8.76897C57.1611 8.71912 57.2191 8.67951 57.2832 8.65247C57.3473 8.62543 57.4161 8.61152 57.4857 8.61154H58.4552C59.7572 8.52621 61.0507 8.87466 62.1336 9.60243C62.5592 9.94075 62.8972 10.3764 63.1193 10.8726C63.3414 11.3688 63.441 11.9112 63.4097 12.4539C63.4423 12.9947 63.3455 13.5355 63.1273 14.0314C62.9091 14.5273 62.5758 14.9641 62.155 15.3054L62.1265 15.2911ZM102.29 2.35966H95.5245C95.4562 2.35679 95.3879 2.36743 95.3237 2.39097C95.2594 2.41451 95.2005 2.45048 95.1502 2.49683C95.0998 2.54317 95.0591 2.59899 95.0304 2.66108C95.0017 2.72317 94.9855 2.79031 94.9827 2.85867V19.2547C94.9827 20.1601 94.9471 21.0868 94.8758 22.042C94.8206 22.9341 94.6032 23.8086 94.2342 24.6226C93.9072 25.3976 93.3656 26.0629 92.673 26.5403C91.7227 27.0739 90.6384 27.3215 89.5507 27.2531C88.4562 27.3196 87.3656 27.0722 86.4069 26.5403C85.6918 26.0896 85.1262 25.4372 84.7815 24.6654C84.4121 23.8554 84.1877 22.9867 84.1186 22.0991C84.0544 21.1367 84.0259 20.2028 84.0259 19.2975V3.12956C84.0154 2.92754 83.93 2.73669 83.7863 2.59431C83.6426 2.45193 83.451 2.36826 83.2489 2.35966H76.4481C76.3094 2.3558 76.1747 2.40676 76.0733 2.5015C75.9719 2.59624 75.9119 2.72713 75.9063 2.8658V20.3953C75.9063 25.2428 77.0231 28.7834 79.2568 31.0171C81.4905 33.2508 84.9027 34.3652 89.4936 34.3605C94.0988 34.3605 97.5134 33.246 99.7376 31.0171C101.962 28.7882 103.069 25.2476 103.06 20.3953V3.12956C103.051 2.92817 102.967 2.73738 102.824 2.59484C102.682 2.45231 102.491 2.36839 102.29 2.35966ZM124.902 21.486C124.794 21.3767 124.734 21.2295 124.734 21.0761C124.734 20.9227 124.794 20.7755 124.902 20.6662C124.962 20.6056 125.035 20.5593 125.116 20.5308C126.798 20.0757 128.294 19.1031 129.393 17.7506C130.584 16.0701 131.181 14.0409 131.09 11.9834C131.097 10.7172 130.88 9.45963 130.448 8.26936C130.029 7.08948 129.353 6.01689 128.471 5.12835C127.589 4.2398 126.521 3.55726 125.344 3.12956C123.903 2.5967 122.375 2.33566 120.839 2.35966H108.77C108.701 2.35679 108.633 2.36743 108.569 2.39097C108.505 2.41451 108.446 2.45048 108.395 2.49683C108.345 2.54317 108.304 2.59899 108.276 2.66108C108.247 2.72317 108.231 2.79031 108.228 2.85867V32.7422C108.24 32.9418 108.325 33.13 108.467 33.2707C108.609 33.4114 108.798 33.4948 108.998 33.505H115.777C115.915 33.5089 116.048 33.4589 116.15 33.3657C116.251 33.2725 116.312 33.1434 116.319 33.006V23.5248C116.319 22.9046 117.167 22.8119 117.517 23.368L123.811 33.1201C123.883 33.2302 123.979 33.3214 124.094 33.386C124.208 33.4505 124.336 33.4865 124.467 33.4908H133.022C133.528 33.4908 133.734 32.9418 133.407 32.507L124.902 21.486ZM121.509 15.2911C120.426 16.0199 119.132 16.3685 117.83 16.282H117.117C116.916 16.2752 116.724 16.193 116.58 16.0518C116.437 15.9106 116.351 15.7206 116.34 15.5193V9.1462C116.338 9.07726 116.35 9.00864 116.375 8.94431C116.4 8.87999 116.437 8.82125 116.485 8.7715C116.533 8.72175 116.59 8.682 116.653 8.65454C116.717 8.62707 116.785 8.61246 116.854 8.61154H117.902C119.204 8.52621 120.497 8.87466 121.58 9.60243C122.006 9.94075 122.344 10.3764 122.566 10.8726C122.788 11.3688 122.887 11.9112 122.856 12.4539C122.884 12.9983 122.78 13.5414 122.554 14.0376C122.329 14.5338 121.987 14.9685 121.559 15.3054L121.509 15.2911Z" fill="#00A0E9"/>
<path d="M0.862127 12.2329C0.911376 12.416 0.997758 12.5871 1.1159 12.7354C1.23405 12.8837 1.38144 13.0062 1.54891 13.0951C1.71638 13.1841 1.90035 13.2376 2.08939 13.2525C2.27844 13.2673 2.46852 13.2431 2.64782 13.1814C2.82711 13.1197 2.9918 13.0217 3.13165 12.8937C3.2715 12.7656 3.38351 12.6101 3.46074 12.4369C3.53796 12.2637 3.57874 12.0765 3.58055 11.8869C3.58235 11.6973 3.54515 11.5093 3.47124 11.3347C2.35916 8.12678 2.5445 5.56044 3.9845 4.11331C5.56708 2.50935 8.62529 2.30262 12.3893 3.5644C12.9738 3.75688 13.5441 3.96361 14.0859 4.1846C14.9861 3.53844 15.9188 2.93884 16.8803 2.38816C15.6932 1.84626 14.4771 1.37029 13.2376 0.962421C8.46846 -0.655796 4.36945 -0.206687 2.02411 2.1743C-0.192923 4.41272 -0.606388 7.9842 0.862127 12.2329ZM22.3837 0.941035C21.2396 1.33742 20.1247 1.81385 19.0475 2.36678C18.691 2.545 18.3346 2.73034 17.9782 2.92995C17.0372 3.42183 16.1104 3.99925 15.1837 4.61232C14.8629 4.83331 14.5493 5.0543 14.2285 5.32519C11.9616 6.98891 9.8715 8.88079 7.99084 10.9711C7.75802 11.2433 7.64051 11.5955 7.66329 11.953C7.68606 12.3104 7.84733 12.6449 8.11281 12.8853C8.37829 13.1257 8.72706 13.2531 9.085 13.2405C9.44294 13.2278 9.78183 13.0761 10.0297 12.8175C12.119 10.5085 14.479 8.45966 17.0586 6.71529C17.3722 6.50856 17.693 6.2947 18.0067 6.10935L18.078 6.15212C18.3774 6.32321 18.6697 6.50856 18.9548 6.69391C21.4154 8.32874 23.6085 10.3342 25.4562 12.6393C25.6878 12.9229 26.0226 13.1028 26.3869 13.1396C26.7512 13.1764 27.1152 13.0669 27.3988 12.8353C27.6824 12.6037 27.8623 12.2689 27.8991 11.9046C27.9359 11.5403 27.8264 11.1763 27.5948 10.8927C25.8895 8.77379 23.923 6.87914 21.7421 5.25391C21.3857 4.99014 21.1005 4.76915 20.7797 4.55529C21.1362 4.39133 21.4926 4.2345 21.8562 4.0848C22.3267 3.88519 22.7972 3.70698 23.2819 3.55727C27.0316 2.30262 30.097 2.50222 31.6867 4.10618C33.1124 5.53193 33.2978 8.12678 32.1928 11.3276C32.0737 11.6726 32.0965 12.0508 32.2563 12.3791C32.4161 12.7073 32.6997 12.9586 33.0447 13.0777C33.3897 13.1968 33.768 13.1739 34.0962 13.0142C34.4244 12.8544 34.6757 12.5708 34.7948 12.2258C36.2633 7.94856 35.8498 4.3842 33.6399 2.16005C31.2661 -0.206687 27.1742 -0.655796 22.3837 0.941035ZM30.432 20.823C31.0767 20.823 31.7068 20.6318 32.2427 20.2735C32.7786 19.9152 33.1962 19.406 33.4425 18.8103C33.6889 18.2146 33.753 17.5591 33.6267 16.927C33.5004 16.2948 33.1895 15.7144 32.7331 15.259C32.2768 14.8037 31.6956 14.494 31.0632 14.3691C30.4308 14.2442 29.7755 14.3097 29.1804 14.5574C28.5852 14.8051 28.0769 15.2238 27.7198 15.7604C27.3627 16.2971 27.1728 16.9277 27.1742 17.5723C27.1742 17.9992 27.2583 18.4219 27.4217 18.8163C27.585 19.2107 27.8245 19.5691 28.1263 19.8709C28.4282 20.1728 28.7865 20.4122 29.1809 20.5756C29.5753 20.7389 29.998 20.823 30.4249 20.823H30.432ZM2.21658 17.4654C2.21658 18.1097 2.40765 18.7396 2.76562 19.2753C3.1236 19.8111 3.6324 20.2287 4.22769 20.4752C4.82298 20.7218 5.47802 20.7863 6.10997 20.6606C6.74193 20.5349 7.32242 20.2246 7.77803 19.769C8.23365 19.3134 8.54392 18.7329 8.66963 18.101C8.79533 17.469 8.73082 16.814 8.48424 16.2187C8.23766 15.6234 7.8201 15.1146 7.28435 14.7566C6.74861 14.3986 6.11874 14.2076 5.4744 14.2076C4.61227 14.2076 3.78544 14.5501 3.17582 15.1597C2.56619 15.7693 2.22371 16.5961 2.22371 17.4583L2.21658 17.4654ZM32.9984 22.0206C32.8268 22.0762 32.668 22.1654 32.5312 22.2828C32.3944 22.4003 32.2823 22.5438 32.2014 22.705C32.1205 22.8661 32.0724 23.0417 32.0599 23.2216C32.0474 23.4015 32.0708 23.5821 32.1287 23.7529C33.3477 27.4171 33.091 30.4325 31.4158 32.0222C29.7405 33.6119 26.9817 33.6476 23.617 32.343C22.9041 32.0579 22.1912 31.7656 21.4784 31.4448C20.6206 32.0752 19.7307 32.6605 18.8122 33.1985C20.043 33.8464 21.3091 34.4247 22.6047 34.9307C24.2742 35.6127 26.0555 35.9801 27.8586 36.0143C29.86 36.0922 31.8124 35.3834 33.2978 34.0396C35.7786 31.68 36.2704 27.6238 34.7235 22.9046C34.6108 22.5594 34.3662 22.2728 34.043 22.1072C33.7199 21.9416 33.3444 21.9105 32.9984 22.0206ZM21.3857 30.2899C23.7042 28.5131 25.7987 26.4617 27.6233 24.1806C27.771 24.0572 27.8912 23.9041 27.976 23.7313C28.0608 23.5585 28.1085 23.3698 28.1158 23.1775C28.1231 22.9851 28.09 22.7933 28.0186 22.6146C27.9472 22.4358 27.8391 22.274 27.7012 22.1397C27.5633 22.0053 27.3988 21.9014 27.2183 21.8346C27.0377 21.7678 26.8452 21.7397 26.6531 21.752C26.461 21.7643 26.2736 21.8167 26.103 21.906C25.9325 21.9953 25.7825 22.1193 25.6629 22.2701C25.6135 22.3236 25.5682 22.3808 25.5275 22.4412C23.5755 24.8786 21.2855 27.0246 18.7267 28.8143C18.4558 28.9996 18.1849 29.185 17.9069 29.3632L16.9516 28.8072L16.5738 28.5791C14.1685 26.8314 12.0104 24.7668 10.158 22.4412C10.0573 22.2875 9.92679 22.1555 9.77423 22.053C9.62167 21.9505 9.45013 21.8797 9.26973 21.8446C9.08933 21.8095 8.90373 21.8109 8.72388 21.8487C8.54404 21.8865 8.37359 21.96 8.22261 22.0648C8.07162 22.1696 7.94316 22.3036 7.84481 22.4588C7.74646 22.614 7.6802 22.7874 7.64996 22.9687C7.61972 23.15 7.6261 23.3355 7.66873 23.5142C7.71136 23.693 7.78937 23.8614 7.89817 24.0096C7.93888 24.07 7.98416 24.1272 8.03361 24.1806C9.85231 26.4622 11.9422 28.5138 14.257 30.2899C14.5493 30.5181 14.8558 30.7391 15.1623 30.9529L14.1358 31.4519C13.4586 31.7727 12.7457 32.0721 11.9972 32.3501C8.63242 33.6547 5.7952 33.562 4.20549 32.0294C2.61579 30.4967 2.28074 27.4242 3.49262 23.76C3.56985 23.5967 3.61416 23.4197 3.62299 23.2392C3.63183 23.0588 3.60504 22.8783 3.54414 22.7082C3.48324 22.5381 3.38942 22.3816 3.26806 22.2477C3.14669 22.1139 3.00014 22.0052 2.83678 21.928C2.67342 21.8507 2.49645 21.8064 2.31597 21.7976C2.13549 21.7888 1.95504 21.8156 1.78491 21.8765C1.61479 21.9374 1.45832 22.0312 1.32446 22.1525C1.19059 22.2739 1.08193 22.4204 1.0047 22.5838C0.955391 22.6807 0.919421 22.7838 0.89777 22.8903C-0.691932 27.6167 -0.178665 31.6658 2.32351 34.0183C3.80694 35.3659 5.76004 36.0775 7.76272 36C9.56463 35.9676 11.3453 35.6052 13.0166 34.9307C14.3029 34.4326 15.5617 33.8662 16.7877 33.2341C17.137 33.0559 17.5005 32.8705 17.8213 32.6781C18.7386 32.1505 19.6297 31.585 20.4946 30.9814C20.8011 30.7462 21.1005 30.5181 21.3857 30.2899Z" fill="#00A0E9"/>
</g>
<defs>
<clipPath id="clip0_224_13904">
<rect width="165.907" height="36" fill="white"/>
</clipPath>
</defs>
</svg>
